<?xml version="1.0" encoding="iso-8859-1"?>
<!-- Uploaded to: SVG Repo, www.svgrepo.com, Generator: SVG Repo Mixer Tools -->
<svg fill="#000000" height="800px" width="800px" version="1.1" id="Layer_1" xmlns="http://www.w3.org/2000/svg" xmlns:xlink="http://www.w3.org/1999/xlink" 
	 viewBox="0 0 511.999 511.999" xml:space="preserve">
<g>
	<g>
		<path d="M396.603,108.84c-4.81,0-8.708,3.899-8.708,8.708v322.244c0,2.069-1.173,3.296-1.872,3.844
			c-0.699,0.548-2.166,1.392-4.18,0.897l-29.73-7.331c-6.165-1.522-12.574-0.145-17.576,3.772c-5.002,3.918-7.869,9.81-7.869,16.161
			v22.251c0,8.38-6.818,15.198-15.199,15.198H200.525c-8.381,0-15.199-6.818-15.199-15.198v-22.251
			c0-6.353-2.869-12.243-7.869-16.161s-11.409-5.293-17.577-3.772l-29.728,7.331c-2.01,0.495-3.482-0.349-4.181-0.897
			c-0.7-0.548-1.872-1.775-1.872-3.844V73.144c0-2.136,1.234-3.372,1.969-3.919c0.736-0.547,2.277-1.373,4.32-0.756l28.489,8.576
			c6.279,1.889,12.9,0.731,18.165-3.182c5.264-3.913,8.284-9.919,8.284-16.477V32.613c0-8.38,6.818-15.198,15.199-15.198H311.47
			c8.381,0,15.199,6.818,15.199,15.198v24.77c0,6.559,3.02,12.565,8.284,16.477c5.263,3.913,11.887,5.071,18.165,3.182l28.489-8.576
			c2.042-0.617,3.583,0.209,4.32,0.756c0.735,0.547,1.969,1.783,1.969,3.919c0,4.809,3.898,8.708,8.708,8.708
			s8.708-3.899,8.708-8.708c0-7.124-3.279-13.647-8.996-17.896c-5.718-4.249-12.909-5.508-19.729-3.455l-28.489,8.577
			c-1.307,0.394-2.286-0.135-2.755-0.483c-0.469-0.348-1.257-1.138-1.257-2.501V32.613C344.086,14.63,329.455,0,311.472,0H200.527
			c-17.983,0-32.614,14.63-32.614,32.613v24.77c0,1.363-0.788,2.153-1.257,2.501c-0.468,0.348-1.448,0.877-2.755,0.483
			l-28.489-8.577c-6.824-2.053-14.011-0.793-19.729,3.455c-5.717,4.249-8.996,10.772-8.996,17.896v366.649
			c0,6.9,3.116,13.298,8.547,17.554c5.43,4.255,12.386,5.749,19.088,4.096l29.728-7.331c1.286-0.315,2.222,0.224,2.668,0.572
			c0.446,0.349,1.194,1.133,1.194,2.452v22.251c0,17.983,14.631,32.613,32.614,32.613H311.47c17.983,0,32.614-14.63,32.614-32.613
			v-22.251c0-1.32,0.749-2.103,1.194-2.452c0.446-0.348,1.38-0.889,2.667-0.572l29.73,7.331c6.7,1.651,13.658,0.159,19.087-4.096
			c5.432-4.255,8.547-10.654,8.547-17.554V117.548C405.31,112.739,401.413,108.84,396.603,108.84z"/>
	</g>
</g>
<g>
	<g>
		<path d="M156.875,140.997c-4.81,0-8.708,3.899-8.708,8.708v212.59c0,4.809,3.898,8.708,8.708,8.708s8.708-3.899,8.708-8.708
			v-212.59C165.583,144.896,161.684,140.997,156.875,140.997z"/>
	</g>
</g>
<g>
	<g>
		<path d="M354.311,140.997c-4.81,0-8.708,3.899-8.708,8.708v212.59c0,4.809,3.898,8.708,8.708,8.708
			c4.81,0,8.708-3.899,8.708-8.708v-212.59C363.019,144.896,359.121,140.997,354.311,140.997z"/>
	</g>
</g>
<g>
	<g>
		<path d="M285.792,371.004c4.81,0,8.708-3.899,8.708-8.708s-3.898-8.708-8.708-8.708h-19.746l0.311-48.779
			c22.556-4.783,39.535-24.847,39.535-48.808c0-24.226-17.357-44.466-40.288-48.958l0.34-53.352h19.847
			c4.81,0,8.708-3.899,8.708-8.708s-3.898-8.708-8.708-8.708h-19.736l0.294-46.075h19.443c4.81,0,8.708-3.899,8.708-8.708
			s-3.898-8.708-8.708-8.708h-28.039h-0.057h-28.092c-4.81,0-8.708,3.899-8.708,8.708s3.898,8.708,8.708,8.708h19.33l-0.294,46.075
			h-19.036c-4.81,0-8.708,3.899-8.708,8.708s3.898,8.708,8.708,8.708h18.926l-0.338,53.029c-23.817,3.758-42.09,24.423-42.09,49.281
			c0,25.115,18.655,45.946,42.835,49.388l-0.307,48.2h-19.027c-4.81,0-8.708,3.899-8.708,8.708s3.898,8.708,8.708,8.708h18.915
			l-0.324,50.797h-18.591c-4.81,0-8.708,3.899-8.708,8.708s3.898,8.708,8.708,8.708h27.03c0.053,0.001,0.106,0.009,0.159,0.009
			c0.02,0,0.037,0,0.057,0c0.06,0,0.12-0.008,0.18-0.009h28.762c4.81,0,8.708-3.899,8.708-8.708s-3.898-8.708-8.708-8.708h-20.181
			l0.324-50.797H285.792z M255.998,288.481c-17.91,0-32.481-14.571-32.481-32.481c0-17.91,14.571-32.481,32.481-32.481
			c17.91,0,32.481,14.571,32.481,32.481C288.478,273.911,273.908,288.481,255.998,288.481z"/>
	</g>
</g>
</svg>