<?xml version="1.0" encoding="iso-8859-1"?>
<!-- Uploaded to: SVG Repo, www.svgrepo.com, Generator: SVG Repo Mixer Tools -->
<svg fill="#000000" height="800px" width="800px" version="1.1" id="Layer_1" xmlns="http://www.w3.org/2000/svg" xmlns:xlink="http://www.w3.org/1999/xlink" 
	 viewBox="0 0 512.001 512.001" xml:space="preserve">
<g>
	<g>
		<path d="M488.391,195.397v-33.798c0-9.445-7.684-17.129-17.129-17.129h-14.195c-8.168-40.51-40.582-76.991-92.171-103.403
			c-11.096-5.68-26.716-4.033-34.818,3.671c-18.768,17.841-76.154,59.338-203.359,59.338H124.3
			c-38.302,0-69.198,17.146-75.55,40.394h-8.014c-9.445,0-17.129,7.684-17.129,17.129v33.798C10.317,197.07,0,208.436,0,222.173
			v112.964c0,76.743,62.434,139.177,139.177,139.177h233.646c76.743,0,139.177-62.434,139.177-139.177V222.173
			C512,208.436,501.682,197.07,488.391,195.397z M124.3,121.872h2.418c57.304,0,107.378-8.133,148.83-24.173
			c34.352-13.292,55.281-29.122,66.789-40.063c2.145-2.037,9.625-3.196,14.448-0.728c45.057,23.066,73.79,53.86,82.056,87.563
			H68.064C75.321,132.554,96.421,121.872,124.3,121.872z M494.204,335.137c0,66.929-54.451,121.381-121.381,121.381H139.177
			c-66.931-0.001-121.381-54.452-121.381-121.381V222.173c0-5.073,4.127-9.199,9.201-9.199h48.715c4.915,0,8.898-3.984,8.898-8.898
			c0-4.914-3.983-8.898-8.898-8.898H41.404v-32.911h15.025h393.08h21.085v32.911H110.451c-4.915,0-8.898,3.984-8.898,8.898
			c0,4.914,3.983,8.898,8.898,8.898h374.552c5.073,0,9.201,4.128,9.201,9.199V335.137z"/>
	</g>
</g>
<g>
	<g>
		<path d="M401.411,260.264H110.589c-4.915,0-8.898,3.983-8.898,8.898v95.372c0,4.915,3.983,8.898,8.898,8.898h290.823
			c4.915,0,8.898-3.983,8.898-8.898v-95.372C410.309,264.247,406.325,260.264,401.411,260.264z M392.513,355.636H119.487v-77.576
			h273.027V355.636z"/>
	</g>
</g>
</svg>