<?xml version="1.0" encoding="iso-8859-1"?>
<!-- Uploaded to: SVG Repo, www.svgrepo.com, Generator: SVG Repo Mixer Tools -->
<svg fill="#000000" height="800px" width="800px" version="1.1" id="Layer_1" xmlns="http://www.w3.org/2000/svg" xmlns:xlink="http://www.w3.org/1999/xlink" 
	 viewBox="0 0 511.997 511.997" xml:space="preserve">
<g>
	<g>
		<path d="M328.128,311.379c-36.609,0-66.392,29.783-66.392,66.392c0,21.735,10.67,42.127,28.544,54.549
			c1.414,0.983,3.095,1.509,4.817,1.509h66.062c1.722,0,3.404-0.527,4.817-1.509c17.873-12.421,28.544-32.814,28.544-54.549
			C394.52,341.162,364.736,311.379,328.128,311.379z M358.399,416.946h-60.543c-12.092-9.359-19.238-23.82-19.238-39.175
			c0-27.3,22.209-49.509,49.509-49.509c27.3,0,49.509,22.209,49.509,49.509C377.637,393.128,370.491,407.588,358.399,416.946z"/>
	</g>
</g>
<g>
	<g>
		<path d="M99.851,60.079L63.834,52.2c-4.551-0.994-9.054,1.889-10.05,6.443s1.888,9.054,6.443,10.05l36.017,7.879
			c0.608,0.133,1.214,0.197,1.812,0.197c3.881,0,7.375-2.693,8.238-6.64C107.29,65.575,104.406,61.075,99.851,60.079z"/>
	</g>
</g>
<g>
	<g>
		<circle cx="33.048" cy="54.102" r="8.441"/>
	</g>
</g>
<g>
	<g>
		<path d="M125.265,33.859l-15.571-12.944c-3.584-2.979-8.906-2.49-11.888,1.095c-2.98,3.585-2.49,8.907,1.095,11.888l15.571,12.944
			c1.577,1.311,3.49,1.949,5.392,1.949c2.422,0,4.826-1.037,6.495-3.046C129.341,42.163,128.85,36.84,125.265,33.859z"/>
	</g>
</g>
<g>
	<g>
		<circle cx="81.488" cy="8.441" r="8.441"/>
	</g>
</g>
<g>
	<g>
		<path d="M117.864,97.242c-2.066-4.178-7.129-5.893-11.308-3.826l-18.15,8.975c-4.179,2.066-5.892,7.129-3.826,11.308
			c1.472,2.977,4.464,4.701,7.574,4.701c1.256,0,2.532-0.281,3.735-0.876l18.15-8.975
			C118.217,106.483,119.93,101.421,117.864,97.242z"/>
	</g>
</g>
<g>
	<g>
		<circle cx="65.55" cy="123.109" r="8.442"/>
	</g>
</g>
<g>
	<g>
		<circle cx="220.458" cy="91.796" r="8.442"/>
	</g>
</g>
<g>
	<g>
		<circle cx="328.126" cy="144.19" r="8.441"/>
	</g>
</g>
<g>
	<g>
		<path d="M441.47,268.007c-12.427-12.622-26.561-22.909-41.87-30.66v-16.149h-0.006c0.001-1.85-0.598-3.714-1.844-5.272
			c-2.912-3.641-8.224-4.232-11.865-1.32c-2.083,1.666-3.163,4.117-3.165,6.592h-0.005V230c-16.921-6.202-34.939-9.5-53.443-9.63
			c-19.327-0.136-38.128,3.15-55.734,9.559v-39.964c0-1.551,1.263-2.814,2.814-2.814h19.885h63.781h19.885
			c1.551,0,2.814,1.263,2.814,2.814c0,4.662,3.78,8.442,8.442,8.442c4.662,0,8.441-3.78,8.441-8.442
			c0-10.86-8.837-19.697-19.697-19.697H368.46v-28.701c0-22.239-18.093-40.331-40.331-40.331c-18.793,0-34.623,12.92-39.079,30.343
			l-76.866-14.871h-0.001l-24.469-4.734l-8.36-1.617c-0.8-0.728-1.159-1.866-0.869-2.949l1.335-4.976c0-0.001,0-0.002,0-0.002
			l4.161-15.509l6.028-22.469c0.38-1.418,1.766-2.349,3.224-2.16l216.785,27.862c1.142,0.146,1.782,0.853,2.06,1.262
			c0.278,0.409,0.705,1.261,0.425,2.377l-4.492,17.965c-0.329,1.315-1.505,2.233-2.86,2.233h-11.367
			c-2.965,0-5.713,1.555-7.238,4.099l-6.136,10.227c-2.399,3.998-1.102,9.183,2.896,11.582c3.999,2.401,9.183,1.102,11.582-2.896
			l3.677-6.129h6.588c9.117,0,17.028-6.177,19.239-15.022l4.491-17.964c1.372-5.489,0.33-11.317-2.86-15.99
			s-8.238-7.767-13.851-8.489L195.385,45.545c-8.406-1.077-16.446,3.372-20.184,10.68l-9.099-2.455
			c-13.807-3.723-28.063,4.479-31.787,18.282c-1.804,6.687-0.895,13.675,2.557,19.679c3.453,6.004,9.037,10.304,15.724,12.107
			l9.004,2.429c-0.648,6.833,2.324,13.585,7.786,17.724l-2.788,6.3c-5.697,11.811-3.408,26.047,5.721,35.478
			c11.491,11.87,14.459,29.239,7.56,44.25l-4.552,9.905c-3.118,6.786-1.248,14.419,4.653,18.996c2.902,2.25,6.275,3.372,9.645,3.372
			c3.485,0,6.965-1.2,9.91-3.593l16.879-13.714c19.421-15.779,26.192-42.872,16.491-65.928l-8.907-22.87l63.798,12.343v21.736
			h-11.443c-10.86,0-19.697,8.837-19.697,19.697v46.522c0,0.24,0.013,0.478,0.022,0.717c-14.863,7.477-28.612,17.341-40.768,29.411
			c-30.339,30.126-47.046,70.261-47.046,113.015c0,50.685,24.48,98.807,65.487,128.727c3.265,2.382,7.17,3.641,11.291,3.641h164.964
			c4.136,0,8.111-1.309,11.492-3.784c19.624-14.363,35.945-33.315,47.2-54.805c11.63-22.205,17.884-47.268,18.086-72.481
			C487.725,338.526,471.418,298.423,441.47,268.007z M304.678,141.566h0.001c0-12.93,10.519-23.448,23.448-23.448
			s23.448,10.519,23.448,23.448v28.701h-46.898V141.566z M165.704,89.887l-8.711-2.349c-2.333-0.629-4.28-2.13-5.486-4.223
			s-1.522-4.533-0.893-6.866c1.087-4.031,4.749-6.691,8.736-6.691c0.777,0,1.568,0.101,2.352,0.313l8.687,2.343L165.704,89.887z
			 M205.77,211.883l-13.03,10.587l2.482-5.4c9.827-21.386,5.6-46.133-10.771-63.043c-4.239-4.379-5.288-10.999-2.609-16.472
			c0.047-0.097,0.093-0.195,0.136-0.294l3.75-8.475l14.941,2.89l3.735,0.723l12.814,32.898c0.03,0.076,0.061,0.152,0.093,0.228
			C224.172,181.725,219.425,200.789,205.77,211.883z M412.127,494.59c-0.469,0.343-0.994,0.525-1.52,0.525H245.644
			c-0.514,0-0.989-0.141-1.341-0.397c-36.665-26.754-58.555-69.777-58.555-115.088c0-38.221,14.937-74.102,42.06-101.035
			c12.25-12.165,26.314-21.82,41.574-28.737c0.411-0.15,0.818-0.322,1.213-0.541c0.025-0.013,0.047-0.03,0.071-0.044
			c17.868-7.884,37.342-12.023,57.455-12.023c0.343,0,0.691,0.001,1.033,0.003c37.884,0.267,73.499,15.395,100.285,42.599
			c26.783,27.202,41.367,63.05,41.063,100.941C470.145,425.554,448.323,468.095,412.127,494.59z"/>
	</g>
</g>
</svg>